<?xml version="1.0" encoding="utf-8"?>
<!-- Generator: Adobe Illustrator 19.1.0, SVG Export Plug-In . SVG Version: 6.00 Build 0)  -->
<svg version="1.1" id="Camada_2" xmlns="http://www.w3.org/2000/svg" xmlns:xlink="http://www.w3.org/1999/xlink" x="0px" y="0px"
	 viewBox="0 0 79 98" style="enable-background:new 0 0 79 98;" xml:space="preserve">
<style type="text/css">
	.st0{display:none;fill:#26769C;}
	.st1{fill:#FFFFFF;}
	.st2{fill:#813434;}
	.st3{fill:#B63535;}
	.st4{clip-path:url(#XMLID_262_);}
	.st5{clip-path:url(#XMLID_264_);}
	.st6{fill:#5C5C5C;}
	.st7{fill:#562222;}
	.st8{clip-path:url(#XMLID_266_);}
	.st9{clip-path:url(#XMLID_268_);}
	.st10{clip-path:url(#SVGID_2_);}
	.st11{fill:#440404;}
	.st12{clip-path:url(#XMLID_270_);}
	.st13{clip-path:url(#XMLID_272_);}
	.st14{clip-path:url(#SVGID_4_);}
	.st15{clip-path:url(#XMLID_274_);}
	.st16{clip-path:url(#XMLID_276_);}
	.st17{clip-path:url(#SVGID_6_);}
	.st18{fill:#1A1A1A;}
	.st19{clip-path:url(#XMLID_278_);}
	.st20{clip-path:url(#XMLID_280_);}
	.st21{clip-path:url(#SVGID_8_);}
	.st22{fill-rule:evenodd;clip-rule:evenodd;fill:#FFFFFF;}
	.st23{clip-path:url(#XMLID_282_);}
	.st24{clip-path:url(#XMLID_284_);}
	.st25{clip-path:url(#SVGID_10_);}
</style>
<g id="Camada_1">
</g>
<g>
	<g>
		<defs>
			<rect id="SVGID_9_" x="-240.9" y="-381.6" width="320" height="480"/>
		</defs>
		<clipPath id="SVGID_2_">
			<use xlink:href="#SVGID_9_"  style="overflow:visible;"/>
		</clipPath>
		<g class="st10">
			<g>
				
					<rect id="XMLID_258_" x="17.3" y="58" transform="matrix(0.7071 0.7071 -0.7071 0.7071 58.0608 -0.2272)" class="st3" width="24" height="24"/>
			</g>
		</g>
		<g class="st10">
			<g>
				
					<rect id="XMLID_257_" x="39.3" y="5" transform="matrix(0.7071 0.7071 -0.7071 0.7071 27.0278 -31.3069)" class="st11" width="24" height="24"/>
				
					<rect id="XMLID_256_" x="29.2" y="18.9" transform="matrix(0.7071 0.7071 -0.7071 0.7071 43.9935 -24.2794)" class="st2" width="44.2" height="44.2"/>
			</g>
			<g>
				
					<rect id="XMLID_255_" x="73.3" y="85.3" transform="matrix(0.7071 -0.7071 0.7071 0.7071 -43.7904 88.8073)" class="st2" width="24" height="24"/>
				
					<rect id="XMLID_254_" x="63.2" y="51.2" transform="matrix(0.7071 -0.7071 0.7071 0.7071 -26.8247 81.7798)" class="st3" width="44.2" height="44.2"/>
			</g>
			<g>
				
					<rect id="XMLID_252_" x="16.2" y="71.2" transform="matrix(0.7071 -0.7071 0.7071 0.7071 -54.7328 54.4037)" class="st11" width="44.2" height="44.2"/>
			</g>
		</g>
	</g>
</g>
</svg>
